<svg width="5" height="8" viewBox="0 0 5 8" fill="none" xmlns="http://www.w3.org/2000/svg">
<path d="M4.54007 3.46051L1.30522 0.22566C1.2343 0.154151 1.14992 0.0973928 1.05695 0.0586596C0.963977 0.0199264 0.864257 -1.52588e-05 0.76354 -1.52588e-05C0.662824 -1.52588e-05 0.563104 0.0199264 0.470133 0.0586596C0.377162 0.0973928 0.292781 0.154151 0.221856 0.22566C0.0797584 0.368605 0 0.561973 0 0.763529C0 0.965086 0.0797584 1.15845 0.221856 1.3014L2.92265 4.00219L0.221856 6.70298C0.0797584 6.84593 0 7.0393 0 7.24085C0 7.44241 0.0797584 7.63578 0.221856 7.77872C0.293145 7.84943 0.37769 7.90537 0.470644 7.94334C0.563598 7.98131 0.663133 8.00055 0.76354 7.99997C0.863947 8.00055 0.963482 7.98131 1.05644 7.94334C1.14939 7.90537 1.23394 7.84943 1.30522 7.77872L4.54007 4.54387C4.61158 4.47295 4.66834 4.38857 4.70707 4.2956C4.7458 4.20263 4.76575 4.10291 4.76575 4.00219C4.76575 3.90147 4.7458 3.80175 4.70707 3.70878C4.66834 3.61581 4.61158 3.53143 4.54007 3.46051Z" fill="#535353"/>
</svg>
