<svg width="22" height="20" viewBox="0 0 22 20" fill="none" xmlns="http://www.w3.org/2000/svg">
<path d="M11 3.52422L10.451 4.03522C10.5929 4.18764 10.7918 4.27422 11 4.27422C11.2082 4.27422 11.4071 4.18764 11.549 4.03522L11 3.52422ZM11.549 4.03522L12.314 3.21328L11.2161 2.1913L10.451 3.01323L11.549 4.03522ZM9.686 3.21328L10.451 4.03522L11.549 3.01323L10.7839 2.1913L9.686 3.21328ZM2.03548 11.4326L8.92091 18.8301L10.0189 17.8081L3.13345 10.4107L2.03548 11.4326ZM13.0791 18.8301L19.9645 11.4326L18.8665 10.4107L11.9811 17.8081L13.0791 18.8301ZM18.8665 3.21328C20.7111 5.19505 20.7112 8.4289 18.8665 10.4107L19.9645 11.4326C22.3452 8.875 22.3452 4.74896 19.9645 2.1913L18.8665 3.21328ZM19.9645 2.1913C17.5553 -0.3971 13.6253 -0.3971 11.2161 2.1913L12.314 3.21328C14.13 1.26224 17.0505 1.26224 18.8665 3.21328L19.9645 2.1913ZM3.13346 3.21328C4.94946 1.26224 7.86996 1.26224 9.686 3.21328L10.7839 2.1913C8.3747 -0.3971 4.44472 -0.3971 2.03548 2.1913L3.13346 3.21328ZM8.92091 18.8301C10.0626 20.0566 11.9374 20.0566 13.0791 18.8301L11.9811 17.8081C11.4327 18.3973 10.5673 18.3973 10.0189 17.8081L8.92091 18.8301ZM2.03548 2.1913C-0.345159 4.74896 -0.34516 8.875 2.03548 11.4326L3.13345 10.4107C1.28885 8.4289 1.28885 5.19505 3.13346 3.21328L2.03548 2.1913Z" fill="white"/>
</svg>
